# xmcd CD database file generated by Grip 3.2.0
# 
# Track frame offsets:
#       150
#       15285
#       31175
#       42657
#       54651
#       75258
#       97910
#       115160
#       128941
#       146841
#       176501
#       190205
#       202934
#       218172
#       243601
#       260075
# 
# Disc length: 3705 seconds
# 
# Revision: 1
# Processed by: cddbd v1.5.2PL0 Copyright (c) Steve Scherf et al.
# Submitted via: Grip 3.2.0
# 
DISCID=db0e7710
DTITLE=Various Artist - Lady Sings the Blues [CD1]
DYEAR=2003
DGENRE=Blues
TTITLE0=Peggy Lee - Fever
TTITLE1=Dusty Springfield - The Look Of Love
TTITLE2=Ella Fitzgerald - Summertime
TTITLE3=Brenda Lee - I'm Sorry
TTITLE4=Gladys Knight and the Pips - Midnight Train To Georgia
TTITLE5=Luba - When a Man Loves a Woman
TTITLE6=Carole King - (You Make Me Feel Like) a Natural Woman
TTITLE7=Irma Thomas - I've Been Loving You Too Long
TTITLE8=Millie Jackson - (If Loving You Is Wrong) I Don't Want to be Right
TTITLE9=Ruby Turner - I'd Rather Go Blind
TTITLE10=Nina Simone - Gin House Blues
TTITLE11=Julie London - Cry Me a River
TTITLE12=Nancy Wilson - Can't Take My Eyes Off You
TTITLE13=Cassandra Wilson - Tupelo Honey and Angel
TTITLE14=Norah Jones - Cold Cold Heart
TTITLE15=Patricia O'Callaghan - Take This Waltz
EXTD=
EXTT0=
EXTT1=
EXTT2=
EXTT3=
EXTT4=
EXTT5=
EXTT6=
EXTT7=
EXTT8=
EXTT9=
EXTT10=
EXTT11=
EXTT12=
EXTT13=
EXTT14=
EXTT15=
PLAYORDER=
